<svg xmlns="http://www.w3.org/2000/svg" width="1180" height="610" viewBox="0 0 1180 610" role="img" aria-labelledby="title desc">
  <title id="title">李克特量表题项百分比堆叠柱状图</title>
  <desc id="desc">13 人作答，Q1 到 Q17 每题中选择 1 到 5 分的人数按百分比堆叠展示。</desc>
  <rect width="1180" height="610" fill="#ffffff"/>

  <style>
    text {
      font-family: Arial, "Microsoft YaHei", sans-serif;
      fill: #555555;
      font-size: 14px;
    }
    .grid {
      stroke: #d9d9d9;
      stroke-width: 1;
      shape-rendering: crispEdges;
    }
    .axis {
      stroke: #d9d9d9;
      stroke-width: 1;
      shape-rendering: crispEdges;
    }
    .tick {
      font-size: 14px;
    }
    .x-label {
      font-size: 13px;
    }
    .legend {
      font-size: 13px;
    }
  </style>

  <g id="grid-lines">
    <line class="grid" x1="56" y1="44" x2="1103" y2="44"/>
    <line class="grid" x1="56" y1="82.8" x2="1103" y2="82.8"/>
    <line class="grid" x1="56" y1="121.6" x2="1103" y2="121.6"/>
    <line class="grid" x1="56" y1="160.4" x2="1103" y2="160.4"/>
    <line class="grid" x1="56" y1="199.2" x2="1103" y2="199.2"/>
    <line class="grid" x1="56" y1="238" x2="1103" y2="238"/>
    <line class="grid" x1="56" y1="276.8" x2="1103" y2="276.8"/>
    <line class="grid" x1="56" y1="315.6" x2="1103" y2="315.6"/>
    <line class="grid" x1="56" y1="354.4" x2="1103" y2="354.4"/>
    <line class="grid" x1="56" y1="393.2" x2="1103" y2="393.2"/>
    <line class="grid" x1="56" y1="432" x2="1103" y2="432"/>
  </g>

  <g id="bars">
    <rect x="88" y="432.00" width="42" height="0.00" fill="#4F81BD"/>
    <rect x="88" y="432.00" width="42" height="0.00" fill="#C0504D"/>
    <rect x="88" y="402.15" width="42" height="29.85" fill="#9BBB59"/>
    <rect x="88" y="133.54" width="42" height="268.62" fill="#8064A2"/>
    <rect x="88" y="44.00" width="42" height="89.54" fill="#4BACC6"/>
    <rect x="148" y="103.69" width="42" height="328.31" fill="#4F81BD"/>
    <rect x="148" y="44.00" width="42" height="59.69" fill="#C0504D"/>
    <rect x="148" y="44.00" width="42" height="0.00" fill="#9BBB59"/>
    <rect x="148" y="44.00" width="42" height="0.00" fill="#8064A2"/>
    <rect x="148" y="44.00" width="42" height="0.00" fill="#4BACC6"/>
    <rect x="208" y="223.08" width="42" height="208.92" fill="#4F81BD"/>
    <rect x="208" y="73.85" width="42" height="149.23" fill="#C0504D"/>
    <rect x="208" y="44.00" width="42" height="29.85" fill="#9BBB59"/>
    <rect x="208" y="44.00" width="42" height="0.00" fill="#8064A2"/>
    <rect x="208" y="44.00" width="42" height="0.00" fill="#4BACC6"/>
    <rect x="268" y="103.69" width="42" height="328.31" fill="#4F81BD"/>
    <rect x="268" y="44.00" width="42" height="59.69" fill="#C0504D"/>
    <rect x="268" y="44.00" width="42" height="0.00" fill="#9BBB59"/>
    <rect x="268" y="44.00" width="42" height="0.00" fill="#8064A2"/>
    <rect x="268" y="44.00" width="42" height="0.00" fill="#4BACC6"/>
    <rect x="328" y="432.00" width="42" height="0.00" fill="#4F81BD"/>
    <rect x="328" y="432.00" width="42" height="0.00" fill="#C0504D"/>
    <rect x="328" y="432.00" width="42" height="0.00" fill="#9BBB59"/>
    <rect x="328" y="312.62" width="42" height="119.38" fill="#8064A2"/>
    <rect x="328" y="44.00" width="42" height="268.62" fill="#4BACC6"/>
    <rect x="388" y="133.54" width="42" height="298.46" fill="#4F81BD"/>
    <rect x="388" y="44.00" width="42" height="89.54" fill="#C0504D"/>
    <rect x="388" y="44.00" width="42" height="0.00" fill="#9BBB59"/>
    <rect x="388" y="44.00" width="42" height="0.00" fill="#8064A2"/>
    <rect x="388" y="44.00" width="42" height="0.00" fill="#4BACC6"/>
    <rect x="448" y="432.00" width="42" height="0.00" fill="#4F81BD"/>
    <rect x="448" y="432.00" width="42" height="0.00" fill="#C0504D"/>
    <rect x="448" y="223.08" width="42" height="208.92" fill="#9BBB59"/>
    <rect x="448" y="44.00" width="42" height="179.08" fill="#8064A2"/>
    <rect x="448" y="44.00" width="42" height="0.00" fill="#4BACC6"/>
    <rect x="508" y="432.00" width="42" height="0.00" fill="#4F81BD"/>
    <rect x="508" y="432.00" width="42" height="0.00" fill="#C0504D"/>
    <rect x="508" y="432.00" width="42" height="0.00" fill="#9BBB59"/>
    <rect x="508" y="342.46" width="42" height="89.54" fill="#8064A2"/>
    <rect x="508" y="44.00" width="42" height="298.46" fill="#4BACC6"/>
    <rect x="568" y="103.69" width="42" height="328.31" fill="#4F81BD"/>
    <rect x="568" y="44.00" width="42" height="59.69" fill="#C0504D"/>
    <rect x="568" y="44.00" width="42" height="0.00" fill="#9BBB59"/>
    <rect x="568" y="44.00" width="42" height="0.00" fill="#8064A2"/>
    <rect x="568" y="44.00" width="42" height="0.00" fill="#4BACC6"/>
    <rect x="628" y="73.85" width="42" height="358.15" fill="#4F81BD"/>
    <rect x="628" y="44.00" width="42" height="29.85" fill="#C0504D"/>
    <rect x="628" y="44.00" width="42" height="0.00" fill="#9BBB59"/>
    <rect x="628" y="44.00" width="42" height="0.00" fill="#8064A2"/>
    <rect x="628" y="44.00" width="42" height="0.00" fill="#4BACC6"/>
    <rect x="688" y="163.38" width="42" height="268.62" fill="#4F81BD"/>
    <rect x="688" y="44.00" width="42" height="119.38" fill="#C0504D"/>
    <rect x="688" y="44.00" width="42" height="0.00" fill="#9BBB59"/>
    <rect x="688" y="44.00" width="42" height="0.00" fill="#8064A2"/>
    <rect x="688" y="44.00" width="42" height="0.00" fill="#4BACC6"/>
    <rect x="748" y="432.00" width="42" height="0.00" fill="#4F81BD"/>
    <rect x="748" y="432.00" width="42" height="0.00" fill="#C0504D"/>
    <rect x="748" y="432.00" width="42" height="0.00" fill="#9BBB59"/>
    <rect x="748" y="342.46" width="42" height="89.54" fill="#8064A2"/>
    <rect x="748" y="44.00" width="42" height="298.46" fill="#4BACC6"/>
    <rect x="808" y="133.54" width="42" height="298.46" fill="#4F81BD"/>
    <rect x="808" y="44.00" width="42" height="89.54" fill="#C0504D"/>
    <rect x="808" y="44.00" width="42" height="0.00" fill="#9BBB59"/>
    <rect x="808" y="44.00" width="42" height="0.00" fill="#8064A2"/>
    <rect x="808" y="44.00" width="42" height="0.00" fill="#4BACC6"/>
    <rect x="868" y="103.69" width="42" height="328.31" fill="#4F81BD"/>
    <rect x="868" y="44.00" width="42" height="59.69" fill="#C0504D"/>
    <rect x="868" y="44.00" width="42" height="0.00" fill="#9BBB59"/>
    <rect x="868" y="44.00" width="42" height="0.00" fill="#8064A2"/>
    <rect x="868" y="44.00" width="42" height="0.00" fill="#4BACC6"/>
    <rect x="928" y="103.69" width="42" height="328.31" fill="#4F81BD"/>
    <rect x="928" y="44.00" width="42" height="59.69" fill="#C0504D"/>
    <rect x="928" y="44.00" width="42" height="0.00" fill="#9BBB59"/>
    <rect x="928" y="44.00" width="42" height="0.00" fill="#8064A2"/>
    <rect x="928" y="44.00" width="42" height="0.00" fill="#4BACC6"/>
    <rect x="988" y="432.00" width="42" height="0.00" fill="#4F81BD"/>
    <rect x="988" y="432.00" width="42" height="0.00" fill="#C0504D"/>
    <rect x="988" y="372.31" width="42" height="59.69" fill="#9BBB59"/>
    <rect x="988" y="103.69" width="42" height="268.62" fill="#8064A2"/>
    <rect x="988" y="44.00" width="42" height="59.69" fill="#4BACC6"/>
    <rect x="1048" y="432.00" width="42" height="0.00" fill="#4F81BD"/>
    <rect x="1048" y="432.00" width="42" height="0.00" fill="#C0504D"/>
    <rect x="1048" y="372.31" width="42" height="59.69" fill="#9BBB59"/>
    <rect x="1048" y="223.08" width="42" height="149.23" fill="#8064A2"/>
    <rect x="1048" y="44.00" width="42" height="179.08" fill="#4BACC6"/>
  </g>

  <line class="axis" x1="56" y1="432" x2="1103" y2="432"/>

  <g id="y-labels">
    <text class="tick" x="42" y="437" text-anchor="end">0%</text>
    <text class="tick" x="42" y="398.2" text-anchor="end">10%</text>
    <text class="tick" x="42" y="359.4" text-anchor="end">20%</text>
    <text class="tick" x="42" y="320.6" text-anchor="end">30%</text>
    <text class="tick" x="42" y="281.8" text-anchor="end">40%</text>
    <text class="tick" x="42" y="243" text-anchor="end">50%</text>
    <text class="tick" x="42" y="204.2" text-anchor="end">60%</text>
    <text class="tick" x="42" y="165.4" text-anchor="end">70%</text>
    <text class="tick" x="42" y="126.6" text-anchor="end">80%</text>
    <text class="tick" x="42" y="87.8" text-anchor="end">90%</text>
    <text class="tick" x="42" y="49" text-anchor="end">100%</text>
  </g>

  <g id="x-labels">
    <text class="x-label" x="109" y="466" text-anchor="end" transform="rotate(-45 109 466)">Q1</text>
    <text class="x-label" x="169" y="466" text-anchor="end" transform="rotate(-45 169 466)">Q2</text>
    <text class="x-label" x="229" y="466" text-anchor="end" transform="rotate(-45 229 466)">Q3</text>
    <text class="x-label" x="289" y="466" text-anchor="end" transform="rotate(-45 289 466)">Q4</text>
    <text class="x-label" x="349" y="466" text-anchor="end" transform="rotate(-45 349 466)">Q5</text>
    <text class="x-label" x="409" y="466" text-anchor="end" transform="rotate(-45 409 466)">Q6</text>
    <text class="x-label" x="469" y="466" text-anchor="end" transform="rotate(-45 469 466)">Q7</text>
    <text class="x-label" x="529" y="466" text-anchor="end" transform="rotate(-45 529 466)">Q8</text>
    <text class="x-label" x="589" y="466" text-anchor="end" transform="rotate(-45 589 466)">Q9</text>
    <text class="x-label" x="649" y="466" text-anchor="end" transform="rotate(-45 649 466)">Q10</text>
    <text class="x-label" x="709" y="466" text-anchor="end" transform="rotate(-45 709 466)">Q11</text>
    <text class="x-label" x="769" y="466" text-anchor="end" transform="rotate(-45 769 466)">Q12</text>
    <text class="x-label" x="829" y="466" text-anchor="end" transform="rotate(-45 829 466)">Q13</text>
    <text class="x-label" x="889" y="466" text-anchor="end" transform="rotate(-45 889 466)">Q14</text>
    <text class="x-label" x="949" y="466" text-anchor="end" transform="rotate(-45 949 466)">Q15</text>
    <text class="x-label" x="1009" y="466" text-anchor="end" transform="rotate(-45 1009 466)">Q16</text>
    <text class="x-label" x="1069" y="466" text-anchor="end" transform="rotate(-45 1069 466)">Q17</text>
  </g>

  <g id="legend" transform="translate(514 576)">
    <rect x="0" y="-8" width="8" height="8" fill="#4F81BD"/>
    <text class="legend" x="12" y="0">1</text>
    <rect x="28" y="-8" width="8" height="8" fill="#C0504D"/>
    <text class="legend" x="40" y="0">2</text>
    <rect x="56" y="-8" width="8" height="8" fill="#9BBB59"/>
    <text class="legend" x="68" y="0">3</text>
    <rect x="84" y="-8" width="8" height="8" fill="#8064A2"/>
    <text class="legend" x="96" y="0">4</text>
    <rect x="112" y="-8" width="8" height="8" fill="#4BACC6"/>
    <text class="legend" x="124" y="0">5</text>
  </g>
</svg>
